<?xml version="1.0" encoding="UTF-8"?>
<svg xmlns="http://www.w3.org/2000/svg" xmlns:xlink="http://www.w3.org/1999/xlink" width="270px" height="168px" viewBox="0 0 269 168" version="1.1">
<g id="surface1">

<path style=" stroke:none;fill-rule:nonzero;fill:rgb(0%,0%,0%);fill-opacity:1;" d="M 17.351562 83.988281 L 17.351562 167.972656 L 185.207031 167.972656 L 185.179688 153.992188 L 185.140625 140.023438 L 182.960938 139.980469 L 180.769531 139.957031 L 180.769531 163.664062 L 21.65625 163.664062 L 21.65625 4.308594 L 180.769531 4.308594 L 180.769531 28.019531 L 182.960938 27.992188 L 185.140625 27.949219 L 185.179688 13.96875 L 185.207031 0 L 17.351562 0 Z M 17.351562 83.988281 "/>
<path style=" stroke:none;fill-rule:nonzero;fill:rgb(0%,0%,0%);fill-opacity:1;" d="M 156.085938 33.890625 C 151.394531 34.578125 148.851562 35.640625 145.769531 38.214844 C 141.238281 42.027344 138.710938 48.667969 139.222656 55.429688 C 139.488281 59.039062 140.632812 62.570312 142.394531 65.222656 C 143.257812 66.527344 145.234375 68.480469 146.644531 69.425781 C 149.792969 71.511719 152.804688 72.414062 157.257812 72.5625 C 159.179688 72.632812 159.570312 72.605469 160.082031 72.414062 C 161.183594 71.972656 171.152344 67.726562 171.203125 67.675781 C 171.273438 67.605469 169.875 63.429688 169.726562 63.257812 C 169.671875 63.203125 167.492188 63.820312 164.871094 64.65625 L 160.121094 66.179688 L 158.777344 66.03125 C 154.539062 65.558594 151.703125 63.109375 150.15625 58.542969 C 148.863281 54.742188 148.957031 49.246094 150.382812 44.964844 C 151.082031 42.863281 152.066406 41.164062 153.34375 39.804688 L 153.988281 39.117188 L 155.171875 39.226562 C 156.707031 39.359375 158.183594 39.65625 159.878906 40.167969 C 160.984375 40.503906 161.253906 40.640625 161.304688 40.867188 C 161.347656 41.015625 161.722656 42.714844 162.152344 44.613281 L 162.917969 48.089844 L 168.90625 48.089844 L 169.253906 46.632812 C 169.902344 43.859375 170.277344 41.003906 170.277344 38.714844 L 170.277344 37.445312 L 169.726562 37.054688 C 168.890625 36.449219 166.726562 35.371094 165.394531 34.902344 C 163.28125 34.160156 161.871094 33.929688 159.046875 33.878906 C 157.648438 33.851562 156.316406 33.863281 156.085938 33.890625 Z M 156.085938 33.890625 "/>
<path style=" stroke:none;fill-rule:nonzero;fill:rgb(0%,0%,0%);fill-opacity:1;" d="M 66.375 34.859375 C 66.269531 35.15625 66.296875 37.460938 66.441406 39.9375 C 66.589844 42.269531 66.804688 44.113281 67.195312 46.230469 L 67.410156 47.414062 L 70.019531 47.414062 C 72.414062 47.414062 72.628906 47.402344 72.628906 47.171875 C 72.644531 46.417969 73.4375 39.816406 73.53125 39.738281 C 73.640625 39.644531 78.183594 39.199219 79.058594 39.199219 L 79.488281 39.199219 L 79.488281 67.042969 L 76.839844 68.375 L 74.175781 69.707031 L 74.203125 70.367188 C 74.21875 70.730469 74.257812 71.164062 74.296875 71.339844 L 74.378906 71.660156 L 84.585938 71.660156 C 93.773438 71.660156 94.796875 71.632812 94.875 71.445312 C 94.917969 71.324219 94.957031 70.664062 94.957031 69.976562 L 94.957031 68.726562 L 94.054688 68.5625 C 93.542969 68.480469 92.320312 68.28125 91.324219 68.117188 L 89.507812 67.824219 L 89.46875 53.503906 L 89.441406 39.199219 L 89.871094 39.199219 C 90.746094 39.199219 95.292969 39.644531 95.402344 39.738281 C 95.496094 39.816406 96.289062 46.527344 96.300781 47.238281 C 96.300781 47.375 96.921875 47.414062 98.910156 47.414062 C 101.507812 47.414062 101.519531 47.414062 101.585938 47.105469 C 101.910156 45.796875 102.449219 40.261719 102.570312 36.976562 L 102.664062 34.6875 L 84.558594 34.6875 C 69.496094 34.6875 66.429688 34.710938 66.375 34.859375 Z M 66.375 34.859375 "/>
<path style=" stroke:none;fill-rule:nonzero;fill:rgb(0%,0%,0%);fill-opacity:1;" d="M 104.316406 35.183594 C 104.277344 35.359375 104.238281 36.019531 104.238281 36.652344 L 104.238281 37.824219 L 104.679688 37.90625 C 104.910156 37.945312 105.851562 38.082031 106.765625 38.203125 L 108.40625 38.429688 L 108.40625 67.285156 L 107.316406 67.808594 C 106.511719 68.199219 104.074219 69.574219 103.738281 69.828125 C 103.726562 69.84375 103.78125 70.261719 103.859375 70.757812 L 104.007812 71.660156 L 119.316406 71.660156 C 133.8125 71.660156 134.632812 71.648438 134.632812 71.417969 C 134.632812 71.296875 134.730469 70.367188 134.835938 69.371094 C 135.105469 66.839844 135.386719 60.375 135.226562 60.226562 C 135.066406 60.050781 129.914062 59.632812 129.792969 59.765625 C 129.738281 59.820312 129.253906 61.195312 128.730469 62.796875 L 127.761719 65.722656 L 127.332031 65.789062 C 127.089844 65.828125 125.207031 65.976562 123.132812 66.136719 C 121.0625 66.285156 119.167969 66.433594 118.9375 66.460938 L 118.496094 66.527344 L 118.496094 55.632812 L 119.140625 55.644531 C 119.488281 55.644531 122.058594 55.753906 124.855469 55.875 C 127.652344 55.996094 129.980469 56.078125 130.007812 56.050781 C 130.035156 56.023438 130.0625 54.660156 130.0625 53.03125 L 130.0625 50.082031 L 129.292969 50.164062 C 128.609375 50.242188 118.777344 51.050781 118.574219 51.050781 C 118.535156 51.050781 118.496094 48.53125 118.496094 45.460938 C 118.496094 41.085938 118.535156 39.871094 118.667969 39.871094 C 119.382812 39.859375 127.316406 40.464844 127.386719 40.53125 C 127.4375 40.570312 127.667969 41.730469 127.894531 43.105469 C 128.136719 44.476562 128.351562 45.703125 128.394531 45.824219 C 128.460938 46.042969 128.714844 46.066406 131.203125 46.066406 C 133.691406 46.066406 133.949219 46.042969 134.015625 45.824219 C 134.175781 45.3125 134.632812 42.417969 134.78125 41.015625 C 134.863281 40.195312 134.945312 38.496094 134.957031 37.246094 L 134.972656 34.957031 L 119.691406 34.914062 L 104.398438 34.886719 Z M 104.316406 35.183594 "/>
<path style=" stroke:none;fill-rule:nonzero;fill:rgb(0%,0%,0%);fill-opacity:1;" d="M 81.707031 85.871094 C 76.03125 86.800781 71.351562 90.277344 68.730469 95.503906 C 67.128906 98.683594 66.46875 102.078125 66.617188 106.347656 C 66.820312 112.003906 68.515625 116.058594 72.144531 119.589844 C 73.613281 121.015625 74.78125 121.851562 76.464844 122.6875 C 78.992188 123.9375 81.089844 124.4375 84.371094 124.558594 L 86.617188 124.640625 L 94.511719 129.40625 C 98.84375 132.019531 102.410156 134.148438 102.433594 134.121094 C 102.609375 133.949219 106.902344 125.730469 106.820312 125.71875 C 106.765625 125.691406 103.914062 125.003906 100.472656 124.179688 C 97.027344 123.359375 94.203125 122.671875 94.191406 122.660156 C 94.164062 122.644531 94.824219 122.1875 95.628906 121.664062 C 98.023438 120.085938 100.121094 117.730469 101.414062 115.171875 C 103.699219 110.628906 104.0625 103.546875 102.261719 98.128906 C 100.753906 93.578125 97.363281 89.578125 93.277344 87.554688 C 90.585938 86.234375 88.757812 85.820312 85.339844 85.738281 C 83.617188 85.695312 82.570312 85.738281 81.707031 85.871094 Z M 86.511719 91.449219 C 90.046875 92.808594 92.402344 97.457031 92.804688 103.9375 C 93.167969 109.527344 91.890625 115.101562 89.605469 117.945312 C 88.824219 118.914062 88.378906 119.089844 86.617188 119.171875 C 82.648438 119.359375 79.8125 117.042969 78.226562 112.289062 C 76.4375 106.925781 76.8125 98.5625 79.046875 94.089844 C 79.558594 93.078125 80.269531 92.109375 80.753906 91.800781 C 81.898438 91.042969 84.976562 90.871094 86.511719 91.449219 Z M 86.511719 91.449219 "/>
<path style=" stroke:none;fill-rule:nonzero;fill:rgb(0%,0%,0%);fill-opacity:1;" d="M 106.523438 88.214844 L 106.523438 89.683594 L 106.902344 89.765625 C 107.101562 89.804688 107.894531 89.925781 108.675781 90.046875 C 109.457031 90.167969 110.222656 90.289062 110.382812 90.316406 L 110.679688 90.386719 L 110.734375 99.921875 C 110.789062 109.890625 110.816406 110.226562 111.433594 112.679688 C 112.964844 118.753906 117.285156 122.886719 123.445312 124.195312 C 125.164062 124.558594 128.59375 124.695312 130.410156 124.464844 C 133.652344 124.058594 136.289062 122.863281 138.441406 120.828125 C 140.457031 118.941406 141.613281 116.664062 142.300781 113.296875 C 142.773438 110.925781 142.839844 109.40625 142.839844 100.164062 L 142.851562 91.125 L 144.023438 90.585938 C 144.921875 90.167969 147.265625 88.824219 147.519531 88.566406 C 147.546875 88.554688 147.480469 88.136719 147.398438 87.636719 L 147.238281 86.746094 L 131.433594 86.746094 L 131.339844 88.175781 C 131.285156 88.957031 131.273438 89.617188 131.300781 89.644531 C 131.324219 89.671875 132.375 89.871094 133.625 90.074219 L 135.914062 90.453125 L 135.953125 98.332031 C 135.992188 106.574219 135.859375 110.792969 135.507812 112.800781 C 135.039062 115.464844 134.109375 117.390625 132.953125 118.066406 C 131.460938 118.957031 129.011719 119.292969 127.101562 118.886719 C 123.605469 118.148438 121.425781 115.480469 120.929688 111.332031 C 120.835938 110.5625 120.78125 106.589844 120.78125 100.621094 L 120.792969 91.125 L 121.964844 90.585938 C 122.839844 90.183594 125.207031 88.824219 125.449219 88.578125 C 125.460938 88.566406 125.40625 88.148438 125.328125 87.652344 L 125.179688 86.746094 L 106.523438 86.746094 Z M 106.523438 88.214844 "/>
<path style=" stroke:none;fill-rule:nonzero;fill:rgb(0%,0%,0%);fill-opacity:1;" d="M 149.160156 88.214844 L 149.160156 89.683594 L 149.535156 89.765625 C 149.738281 89.804688 150.53125 89.925781 151.3125 90.046875 C 152.09375 90.167969 152.859375 90.289062 153.035156 90.332031 L 153.328125 90.386719 L 153.328125 119.144531 L 151.808594 119.910156 C 150.988281 120.34375 149.925781 120.921875 149.46875 121.21875 L 148.648438 121.742188 L 148.769531 122.335938 C 148.835938 122.660156 148.917969 123.050781 148.957031 123.210938 L 149.027344 123.523438 L 168.394531 123.523438 L 168.394531 120.570312 L 167.964844 120.492188 C 165.867188 120.140625 163.523438 119.75 163.472656 119.75 C 163.445312 119.75 163.417969 113.3125 163.417969 105.429688 L 163.429688 91.125 L 164.601562 90.585938 C 165.476562 90.183594 167.84375 88.824219 168.085938 88.578125 C 168.097656 88.566406 168.042969 88.148438 167.964844 87.652344 L 167.816406 86.746094 L 149.160156 86.746094 Z M 149.160156 88.214844 "/>
<path style=" stroke:none;fill-rule:nonzero;fill:rgb(0%,0%,0%);fill-opacity:1;" d="M 171.703125 87.582031 C 171.40625 90.789062 171.5 95.113281 171.929688 98.398438 L 172.09375 99.613281 L 174.851562 99.652344 L 177.621094 99.679688 L 178.546875 96.554688 C 179.046875 94.828125 179.542969 93.144531 179.652344 92.808594 L 179.828125 92.191406 L 185.152344 91.824219 C 188.085938 91.609375 190.503906 91.476562 190.53125 91.503906 C 190.574219 91.53125 185.917969 97.765625 180.214844 105.351562 C 169.886719 119.078125 169.847656 119.128906 170.0625 119.480469 C 170.167969 119.667969 170.773438 120.652344 171.378906 121.664062 L 172.496094 123.507812 L 186.886719 123.523438 L 201.277344 123.523438 L 201.722656 120.382812 C 202.140625 117.378906 202.449219 114.605469 202.609375 112.234375 C 202.679688 111.386719 202.652344 111.128906 202.53125 111.128906 C 202.4375 111.117188 201.117188 110.941406 199.597656 110.738281 C 198.078125 110.523438 196.828125 110.375 196.8125 110.386719 C 196.785156 110.402344 196.113281 112.070312 195.308594 114.105469 L 193.855469 117.796875 L 189.765625 117.945312 C 187.519531 118.039062 184.871094 118.132812 183.902344 118.175781 C 182.921875 118.226562 182.113281 118.214844 182.113281 118.160156 C 182.113281 118.105469 186.6875 111.976562 192.253906 104.542969 L 202.394531 91.019531 L 201.304688 88.890625 L 200.203125 86.746094 L 171.785156 86.746094 Z M 171.703125 87.582031 "/>
</g>
</svg>
